<svg width="128" height="128" viewBox="0 0 128 128" fill="none" xmlns="http://www.w3.org/2000/svg">
<rect width="128" height="128" fill="#131313"/>
<path fill-rule="evenodd" clip-rule="evenodd" d="M56.4499 76C54.2581 76 52.2855 75.5069 50.5321 74.5205C48.8006 73.5123 47.4307 72.1205 46.4225 70.3452C45.4143 68.5699 44.9102 66.4986 44.9102 64.1315V63.9014C44.9102 61.5123 45.4143 59.4301 46.4225 57.6548C47.4307 55.8795 48.8006 54.4986 50.5321 53.5123C52.2855 52.5041 54.2581 52 56.4499 52C58.6417 52 60.6033 52.5041 62.3348 53.5123C64.0663 54.4986 65.4362 55.8795 66.4444 57.6548C67.4526 59.4301 67.9567 61.5123 67.9567 63.9014V64.1315C67.9567 66.4986 67.4526 68.5699 66.4444 70.3452C65.4362 72.1205 64.0663 73.5123 62.3348 74.5205C60.6033 75.5069 58.6417 76 56.4499 76ZM56.4499 70.8712C57.6334 70.8712 58.6855 70.6082 59.606 70.0822C60.5266 69.5562 61.2499 68.789 61.7759 67.7808C62.3019 66.7726 62.5649 65.5562 62.5649 64.1315V63.9014C62.5649 62.4767 62.3019 61.2603 61.7759 60.2521C61.2499 59.2438 60.5266 58.4767 59.606 57.9507C58.6855 57.4027 57.6334 57.1288 56.4499 57.1288C55.2663 57.1288 54.2033 57.4027 53.2608 57.9507C52.3403 58.4767 51.617 59.2438 51.091 60.2521C50.5649 61.2603 50.3019 62.4767 50.3019 63.9014V64.1315C50.3019 65.5562 50.5649 66.7726 51.091 67.7808C51.617 68.789 52.3403 69.5562 53.2608 70.0822C54.2033 70.6082 55.2663 70.8712 56.4499 70.8712ZM71.457 52.4932V75.5069H80.268C81.8899 75.5069 83.4022 75.2329 84.805 74.6849C86.2077 74.137 87.4351 73.3589 88.4872 72.3507C89.5392 71.3425 90.3611 70.148 90.9529 68.7671C91.5447 67.3863 91.8406 65.863 91.8406 64.1973V63.8685C91.8406 62.1808 91.5447 60.6466 90.9529 59.2658C90.3831 57.8849 89.5721 56.6904 88.52 55.6822C87.4899 54.6521 86.2625 53.863 84.8379 53.3151C83.4351 52.7671 81.9118 52.4932 80.268 52.4932H71.457ZM76.7173 70.6082H79.8406C81.1337 70.6082 82.2735 70.3452 83.2598 69.8192C84.268 69.2712 85.0461 68.5151 85.594 67.5507C86.1639 66.5863 86.4488 65.4685 86.4488 64.1973V63.8685C86.4488 62.5534 86.1748 61.4137 85.6269 60.4493C85.0789 59.4849 84.3118 58.7397 83.3255 58.2137C82.3392 57.6658 81.1776 57.3918 79.8406 57.3918H76.7173V70.6082ZM96.233 74.3891C97.0002 75.1343 97.9645 75.5069 99.1262 75.5069H110.929V70.7397H100.967C100.792 70.7397 100.639 70.674 100.507 70.5425C100.376 70.411 100.31 70.2575 100.31 70.0822V66.2028H110.239V61.6658H100.31V57.9178C100.31 57.7425 100.376 57.5891 100.507 57.4575C100.639 57.326 100.792 57.2603 100.967 57.2603H110.929V52.4932H99.1262C97.9645 52.4932 97.0002 52.8767 96.233 53.6438C95.4878 54.3891 95.1152 55.3425 95.1152 56.5041V71.4959C95.1152 72.6575 95.4878 73.6219 96.233 74.3891ZM18 52.4932V75.5069H23.1288V59.6317L27.7973 71.2329H31.6438L36.3123 59.6317V75.5069H41.4411V52.4932H34.3726L29.7205 63.6945L25.0685 52.4932H18Z" fill="white"/>
</svg>
